<svg width="14" height="14" viewBox="0 0 14 14" fill="none" xmlns="http://www.w3.org/2000/svg">
<g clip-path="url(#clip0_29_41)">
<path d="M13.4767 11.2422L9.36969 6.99996L13.4767 2.75742C14.1747 2.12634 14.1747 1.10353 13.4767 0.472727C12.7782 -0.158081 11.6466 -0.157811 10.949 0.472996L7.00011 4.55238L3.05122 0.472996C2.3533 -0.157542 1.22198 -0.157811 0.523473 0.472727C-0.174441 1.1038 -0.174441 2.12661 0.523473 2.75742L4.63054 6.99996L0.523473 11.2422C-0.174441 11.873 -0.174441 12.8958 0.523176 13.5266C1.22139 14.1577 2.35301 14.1577 3.05122 13.5266L7.00011 9.44727L10.949 13.5266C11.6475 14.1577 12.7791 14.1577 13.477 13.5266C14.1747 12.8958 14.1747 11.873 13.4767 11.2422Z" fill="white"/>
</g>
<defs>
<clipPath id="clip0_29_41">
<rect width="14" height="14" fill="white"/>
</clipPath>
</defs>
</svg>
