<svg width="24" height="24" viewBox="0 0 144 144" fill="none" xmlns="http://www.w3.org/2000/svg">
<path d="M118.5 129H91.5C87.357 129 84 125.643 84 121.5V94.5C84 91.185 81.315 88.5 78 88.5H66C62.685 88.5 60 91.185 60 94.5V121.5C60 125.643 56.643 129 52.5 129H25.5C21.357 129 18 125.643 18 121.5V64.239C18 57.342 21.162 50.826 26.577 46.56L69.213 12.963C70.848 11.679 73.152 11.679 74.784 12.963L117.426 46.56C122.841 50.826 126 57.339 126 64.233V121.5C126 125.643 122.643 129 118.5 129Z" fill="black"/>
</svg>
