<svg width="15" height="15" viewBox="0 0 10 10" fill="none" xmlns="http://www.w3.org/2000/svg">
<g clip-path="url(#clip0_30_59)">
<path d="M4.99571 9.99561C4.99704 9.99561 4.9988 9.99538 5.00013 9.99538C5.00167 9.99538 5.003 9.99561 5.00454 9.99561C7.76324 9.99561 10 7.75907 10 4.99993C10 2.24122 7.76324 0.004468 5.00454 0.004468C5.003 0.004468 5.00167 0.004468 5.00013 0.004468C4.9988 0.004468 4.99704 0.004468 4.99571 0.004468C2.23701 0.004468 0.000255733 2.24122 0.000255733 4.99993C3.5037e-05 7.75907 2.23679 9.99561 4.99571 9.99561ZM4.99571 1.43458C4.99704 1.43458 4.9988 1.4348 5.00013 1.4348C5.00167 1.4348 5.003 1.43458 5.00454 1.43458C5.45609 1.43458 5.82222 1.80049 5.82222 2.25226C5.82222 2.70358 5.45609 3.0695 5.00454 3.0695C5.003 3.0695 5.00167 3.0695 5.00013 3.0695C4.9988 3.0695 4.99704 3.0695 4.99571 3.0695C4.54439 3.0695 4.17781 2.70358 4.17781 2.25226C4.17781 1.80071 4.54373 1.43458 4.99571 1.43458ZM4.24954 7.6655C4.30295 6.84958 4.24954 4.42303 4.24954 4.42303C4.24954 4.01386 4.58478 3.68237 4.99395 3.68237C4.99616 3.68237 4.99836 3.68237 5.00035 3.68237C5.00234 3.68237 5.00476 3.68237 5.00675 3.68237C5.4157 3.68237 5.75094 4.0143 5.75094 4.42303C5.75094 4.42303 5.69753 6.9085 5.75094 7.72442C5.75094 8.16581 5.89064 8.83254 5.00653 8.83254C5.00432 8.83254 5.00211 8.83232 5.00013 8.83232C4.99814 8.83232 4.99593 8.83254 4.99373 8.83254C4.10984 8.83254 4.24954 8.03825 4.24954 7.6655Z" fill="white"/>
</g>
<defs>
<clipPath id="clip0_30_59">
<rect width="9.99997" height="9.99997" fill="white" transform="translate(10 10) rotate(-180)"/>
</clipPath>
</defs>
</svg>
