<svg width="8" height="11" viewBox="0 0 8 11" fill="none" xmlns="http://www.w3.org/2000/svg">
<g clip-path="url(#clip0_42_217)">
<path d="M4.15698 0.00477314C3.68268 0.0477436 3.36243 0.133684 2.98543 0.32016C2.7576 0.432856 2.5995 0.533391 2.40978 0.685815C1.97035 1.0385 1.61848 1.53793 1.43687 2.06736C1.34282 2.34221 1.29255 2.58868 1.27066 2.88298C1.2658 2.95109 1.26255 3.34026 1.26255 3.86158V4.72666H0.995811C0.763932 4.72666 0.726637 4.72828 0.716097 4.73963C0.703936 4.75098 0.703125 5.01773 0.703125 7.55136C0.703125 10.2528 0.703936 10.3509 0.717719 10.3639C0.731502 10.3769 0.995811 10.3777 4.35318 10.3777C7.85001 10.3777 7.97324 10.3769 7.98622 10.3631C7.99919 10.3493 8 10.1426 8 7.54974C8 5.01692 7.99919 4.75098 7.98703 4.73963C7.97649 4.72828 7.93919 4.72666 7.70731 4.72666H7.44057V3.86077C7.44057 3.00136 7.43814 2.88704 7.41139 2.67948C7.30518 1.84277 6.84466 1.07579 6.1474 0.574739C6.01687 0.47988 5.8912 0.406101 5.7177 0.32016C5.38529 0.155575 5.07639 0.064769 4.70019 0.0193663C4.59641 0.00720481 4.23806 -0.00252373 4.15698 0.00477314ZM4.67992 0.88283C4.93612 0.923368 5.138 0.98823 5.36745 1.10417C5.78824 1.3174 6.13281 1.66522 6.34523 2.09168C6.45712 2.31707 6.51468 2.49949 6.55927 2.76867C6.57549 2.87082 6.5763 2.90001 6.57873 3.79996L6.58197 4.72666H4.35156H2.12115L2.12439 3.79996C2.12683 2.90001 2.12764 2.87082 2.14385 2.76867C2.18844 2.49949 2.24601 2.31707 2.35789 2.09168C2.65301 1.49901 3.19379 1.07093 3.84321 0.916883C3.91132 0.900667 4.10509 0.869858 4.17725 0.864182C4.28022 0.856075 4.57696 0.867425 4.67992 0.88283Z" fill="black"/>
</g>
<defs>
<clipPath id="clip0_42_217">
<rect width="7.29688" height="10.3778" fill="white" transform="translate(0.703125)"/>
</clipPath>
</defs>
</svg>
