<svg width="24" height="24" viewBox="0 0 24 24" fill="none" xmlns="http://www.w3.org/2000/svg">
<path d="M12 3.38824C12.5864 3.38824 13.1595 3.56211 13.6471 3.88788C14.1346 4.21364 14.5146 4.67667 14.739 5.21839C14.9634 5.76013 15.0222 6.35623 14.9077 6.93133C14.7933 7.50643 14.511 8.03468 14.0963 8.4493C13.6817 8.86392 13.1535 9.14629 12.5784 9.26069C12.0033 9.37508 11.4072 9.31637 10.8654 9.09198C10.3237 8.86758 9.86069 8.48759 9.53492 8.00005C9.20916 7.5125 9.03528 6.93931 9.03528 6.35295C9.03528 5.56666 9.34764 4.81257 9.90363 4.25659C10.4596 3.70059 11.2137 3.38824 12 3.38824ZM12 16.0941C16.1929 16.0941 20.6118 18.1553 20.6118 19.0588V20.6118H3.38822V19.0588C3.38822 18.1553 7.80705 16.0941 12 16.0941ZM12 0.705887C10.8831 0.705887 9.79131 1.03708 8.86265 1.65759C7.93399 2.2781 7.2102 3.16004 6.78279 4.19191C6.35537 5.22377 6.24355 6.35921 6.46144 7.45463C6.67933 8.55006 7.21716 9.55627 8.00691 10.346C8.79667 11.1358 9.80287 11.6736 10.8983 11.8915C11.9937 12.1094 13.1292 11.9976 14.161 11.5702C15.1928 11.1427 16.0749 10.4189 16.6954 9.49028C17.3158 8.56162 17.647 7.46983 17.647 6.35295C17.647 4.85525 17.0521 3.4189 15.993 2.35987C14.9341 1.30084 13.4977 0.705887 12 0.705887ZM12 13.4118C8.23058 13.4118 0.705872 15.3035 0.705872 19.0588V23.2941H23.2941V19.0588C23.2941 15.3035 15.7694 13.4118 12 13.4118Z" fill="#28292A"/>
</svg>
