<svg width="16" height="16" viewBox="0 0 16 16" fill="none" xmlns="http://www.w3.org/2000/svg">
<path d="M8.20833 0.459844L9.93333 4.20984C10.0083 4.43484 10.2333 4.58484 10.4583 4.65984L14.3583 5.25984C15.0333 5.25984 15.2583 6.00984 14.8083 6.45984L11.9583 9.38484C11.8083 9.53484 11.7333 9.83484 11.7333 10.0598L12.4083 14.1098C12.4833 14.7098 11.8833 15.2348 11.3583 14.9348L7.83333 12.9848C7.60833 12.8348 7.38333 12.8348 7.15833 12.9848L3.63333 14.9348C3.10833 15.2348 2.43333 14.7848 2.58333 14.1098L3.25833 10.0598C3.33333 9.83484 3.18333 9.53484 3.03333 9.38484L0.183333 6.45984C-0.191667 6.00984 0.0333333 5.25984 0.633333 5.18484L4.53333 4.58484C4.75833 4.58484 4.98333 4.35984 5.05833 4.13484L6.78333 0.384844C7.15833 -0.140156 7.90833 -0.140156 8.20833 0.459844Z" fill="white"/>
</svg>
