<svg width="28" height="28" viewBox="0 0 28 28" fill="none" xmlns="http://www.w3.org/2000/svg">
<path d="M14 4.66667C14 4.66667 6.70315 4.66664 4.88315 5.1543C3.87865 5.42264 3.08931 6.21314 2.82097 7.21648C2.33331 9.03648 2.33334 14 2.33334 14C2.33334 14 2.33331 18.9635 2.82097 20.7835C3.08931 21.788 3.87981 22.5774 4.88315 22.8457C6.70315 23.3334 14 23.3333 14 23.3333C14 23.3333 21.2969 23.3334 23.1169 22.8457C24.1202 22.5774 24.9107 21.7869 25.179 20.7835C25.6667 18.9635 25.6667 14 25.6667 14C25.6667 14 25.6667 9.03648 25.179 7.21648C24.9107 6.21314 24.1202 5.42264 23.1169 5.1543C21.2969 4.66664 14 4.66667 14 4.66667ZM14 7.00001C17.3623 7.00001 21.5727 7.15588 22.513 7.40788C22.7102 7.46038 22.8718 7.62198 22.9255 7.82032C23.2066 8.86798 23.3333 12.0657 23.3333 14C23.3333 15.9343 23.2066 19.1309 22.9255 20.1797C22.873 20.3769 22.7114 20.5385 22.513 20.5921C21.5739 20.8441 17.3623 21 14 21C10.6388 21 6.42849 20.8441 5.48699 20.5921C5.28982 20.5396 5.12822 20.378 5.07455 20.1797C4.79339 19.132 4.66668 15.9343 4.66668 14C4.66668 12.0657 4.79339 8.86804 5.07455 7.81804C5.12705 7.62204 5.28866 7.46038 5.48699 7.40788C6.42616 7.15588 10.6377 7.00001 14 7.00001ZM11.6667 9.95769V18.0423L18.6667 14L11.6667 9.95769Z" fill="black"/>
</svg>
